# Blender v2.78 (sub 0) OBJ File: ''
# www.blender.org
o Plane_Plane.001
v -1.000000 0.000000 1.000000
v 1.000000 0.000000 1.000000
v -1.000000 0.000000 -1.000000
v 1.000000 0.000000 -1.000000
v -1.000000 0.000000 0.000000
v 0.000000 0.000000 1.000000
v 1.000000 0.000000 0.000000
v 0.000000 0.000000 -1.000000
vt 0.0000 0.5000
vt 0.0000 0.0000
vt 0.5000 0.0000
vt 1.0000 0.0000
vt 1.0000 0.5000
vt 1.0000 1.0000
vt 0.5000 1.0000
vt 0.0000 1.0000
vn 0.0000 1.0000 0.0000
s off
f 6/1/1 2/2/1 7/3/1 4/4/1 8/5/1 3/6/1 5/7/1 1/8/1
