# Blender v2.78 (sub 0) OBJ File: 'floorTile2.blend'
# www.blender.org
o Cube
v 1.000000 -0.000000 -1.000000
v 1.000000 -0.000000 1.000000
v -1.000000 -0.000000 1.000000
v -1.000000 -0.000000 -1.000000
v 1.000000 0.200000 -0.999999
v 0.999999 0.200000 1.000001
v -1.000000 0.200000 1.000000
v -1.000000 0.200000 -1.000000
v 0.733334 -0.000000 -1.000000
v -0.733333 -0.000000 -1.000000
v 0.733333 -0.000000 1.000000
v -0.733333 -0.000000 1.000000
v 0.733334 0.200000 -1.000000
v -0.733333 0.200000 -1.000000
v 0.733332 0.200000 1.000000
v -0.733334 0.200000 1.000000
v 1.000000 -0.000000 -0.733333
v 1.000000 -0.000000 0.733333
v -1.000000 -0.000000 0.733333
v -1.000000 -0.000000 -0.733334
v 1.000000 0.200000 -0.733332
v 1.000000 0.200000 0.733335
v -1.000000 0.200000 0.733333
v -1.000000 0.200000 -0.733334
v 0.733333 0.200000 -0.733333
v 0.733333 0.200000 0.733334
v -0.733333 0.200000 -0.733333
v -0.733334 0.200000 0.733333
v 0.733333 -0.000000 0.733333
v 0.733334 -0.000000 -0.733334
v -0.733333 -0.000000 0.733333
v -0.733333 -0.000000 -0.733334
vt 0.0000 0.0000
vt 1.0000 0.0000
vt 1.0000 1.0000
vt 0.0000 1.0000
vt 0.0000 0.0000
vt 1.0000 0.0000
vt 1.0000 1.0000
vt 0.0000 1.0000
vt 0.0000 0.0000
vt 1.0000 0.0000
vt 1.0000 1.0000
vt 0.0000 1.0000
vt 0.0000 0.0000
vt 1.0000 0.0000
vt 0.0000 1.0000
vt 0.0000 0.0000
vt 1.0000 0.0000
vt 1.0000 1.0000
vt 0.0000 1.0000
vt 0.0000 0.0000
vt 1.0000 0.0000
vt 1.0000 1.0000
vt 0.0000 1.0000
vt 0.0000 0.0000
vt 1.0000 0.0000
vt 1.0000 1.0000
vt 0.0000 1.0000
vt 0.0000 0.0000
vt 1.0000 0.0000
vt 1.0000 1.0000
vt 0.0000 1.0000
vt 0.0000 0.0000
vt 1.0000 0.0000
vt 1.0000 1.0000
vt 0.0000 1.0000
vt 0.0000 0.0000
vt 1.0000 0.0000
vt 1.0000 1.0000
vt 0.0000 1.0000
vt 0.0000 0.0000
vt 1.0000 0.0000
vt 0.0000 1.0000
vt 0.0000 0.0000
vt 1.0000 0.0000
vt 0.0000 1.0000
vt 1.0000 0.0000
vt 1.0000 1.0000
vt 0.0000 1.0000
vt 0.0000 0.0000
vt 1.0000 0.0000
vt 1.0000 1.0000
vt 0.0000 1.0000
vt 0.0000 0.0000
vt 1.0000 0.0000
vt 1.0000 1.0000
vt 0.0000 1.0000
vt 0.0000 0.0000
vt 1.0000 0.0000
vt 1.0000 1.0000
vt 0.0000 1.0000
vt 0.0000 0.0000
vt 1.0000 0.0000
vt 1.0000 1.0000
vt 0.0000 1.0000
vt 0.0000 0.0000
vt 1.0000 0.0000
vt 1.0000 1.0000
vt 0.0000 1.0000
vt 1.0000 0.0000
vt 1.0000 1.0000
vt 0.0000 1.0000
vt 0.0000 0.0000
vt 1.0000 0.0000
vt 1.0000 1.0000
vt 0.0000 1.0000
vt 1.0000 0.0000
vt 1.0000 1.0000
vt 0.0000 1.0000
vt 0.0000 0.0000
vt 1.0000 0.0000
vt 1.0000 1.0000
vt 0.0000 1.0000
vt 0.0000 0.0000
vt 1.0000 0.0000
vt 1.0000 1.0000
vt 0.0000 0.0000
vt 1.0000 1.0000
vt 0.0000 1.0000
vt 1.0000 0.0000
vt 1.0000 1.0000
vt 0.0000 1.0000
vt 1.0000 0.0000
vt 1.0000 1.0000
vt 0.0000 1.0000
vt 1.0000 0.0000
vt 0.0000 1.0000
vt 0.0000 0.0000
vt 0.0000 1.0000
vt 0.0000 0.0000
vt 1.0000 0.0000
vt 1.0000 1.0000
vt 0.0000 0.0000
vt 1.0000 0.0000
vt 1.0000 1.0000
vn 0.0000 -1.0000 0.0000
vn 0.0000 1.0000 -0.0000
vn 1.0000 0.0000 0.0000
vn -0.0000 0.0000 1.0000
vn -1.0000 -0.0000 -0.0000
vn 0.0000 0.0000 -1.0000
s off
f 31/1/1 12/2/1 3/3/1 19/4/1
f 28/5/2 23/6/2 7/7/2 16/8/2
f 18/9/3 22/10/3 6/11/3 2/12/3
f 12/13/4 16/14/4 7/7/4 3/15/4
f 20/16/5 24/17/5 8/18/5 4/19/5
f 14/20/6 10/21/6 4/22/6 8/23/6
f 5/24/6 1/25/6 9/26/6 13/27/6
f 13/28/6 9/29/6 10/30/6 14/31/6
f 2/32/4 6/33/4 15/34/4 11/35/4
f 11/36/4 15/37/4 16/38/4 12/39/4
f 22/40/2 26/41/2 15/34/2 6/42/2
f 26/43/2 28/44/2 16/38/2 15/45/2
f 18/9/1 2/46/1 11/47/1 29/48/1
f 29/49/1 11/50/1 12/51/1 31/52/1
f 9/53/1 30/54/1 32/55/1 10/56/1
f 30/57/1 29/58/1 31/59/1 32/60/1
f 1/61/1 17/62/1 30/63/1 9/64/1
f 17/65/1 18/66/1 29/67/1 30/68/1
f 13/28/2 14/69/2 27/70/2 25/71/2
f 25/72/2 27/73/2 28/74/2 26/75/2
f 5/24/2 13/76/2 25/77/2 21/78/2
f 21/79/2 25/80/2 26/81/2 22/82/2
f 3/83/5 7/84/5 23/85/5 19/4/5
f 19/86/5 23/6/5 24/87/5 20/88/5
f 1/61/3 5/89/3 21/90/3 17/91/3
f 17/65/3 21/92/3 22/93/3 18/94/3
f 14/20/2 8/95/2 24/87/2 27/96/2
f 27/97/2 24/17/2 23/85/2 28/98/2
f 10/99/1 32/100/1 20/101/1 4/19/1
f 32/102/1 31/103/1 19/104/1 20/88/1
