# Blender v2.78 (sub 0) OBJ File: 'wallTile.blend'
# www.blender.org
o Cube
v 1.000000 -0.000000 -1.000000
v 1.000000 -0.000000 1.000000
v -1.000000 -0.000000 1.000000
v -1.000000 -0.000000 -1.000000
v 1.000000 0.200000 -0.999999
v 0.999999 0.200000 1.000001
v -1.000000 0.200000 1.000000
v -1.000000 0.200000 -1.000000
v 0.733334 -0.000000 -1.000000
v -0.733333 -0.000000 -1.000000
v 0.733333 -0.000000 1.000000
v -0.733333 -0.000000 1.000000
v 0.733334 0.200000 -1.000000
v -0.733333 0.200000 -1.000000
v 0.733332 0.200000 1.000000
v -0.733334 0.200000 1.000000
v 1.000000 -0.000000 -0.733333
v 1.000000 -0.000000 0.733333
v -1.000000 -0.000000 0.733333
v -1.000000 -0.000000 -0.733334
v 1.000000 0.200000 -0.733332
v 1.000000 0.200000 0.733335
v -1.000000 0.200000 0.733333
v -1.000000 0.200000 -0.733334
v 0.733333 0.200000 -0.733333
v 0.733333 0.200000 0.733334
v -0.733333 0.200000 -0.733333
v -0.733334 0.200000 0.733333
v 0.733333 -0.000000 0.733333
v 0.733334 -0.000000 -0.733334
v -0.733333 -0.000000 0.733333
v -0.733333 -0.000000 -0.733334
v 1.000000 1.700000 0.733335
v 0.999999 1.700000 1.000001
v -0.733334 1.700000 1.000000
v -1.000000 1.700000 1.000000
v 0.733332 1.700000 1.000000
v 0.733333 1.700000 0.733334
v -0.733334 1.700000 0.733333
v -1.000000 1.700000 0.733333
vt 0.0000 0.0000
vt 1.0000 0.0000
vt 1.0000 1.0000
vt 0.0000 1.0000
vt 0.0000 0.0000
vt 1.0000 0.0000
vt 1.0000 1.0000
vt 0.0000 1.0000
vt 0.0000 0.0000
vt 1.0000 0.0000
vt 1.0000 1.0000
vt 0.0000 1.0000
vt 0.0000 0.0000
vt 1.0000 0.0000
vt 1.0000 1.0000
vt 0.0000 1.0000
vt 0.0000 0.0000
vt 1.0000 0.0000
vt 1.0000 1.0000
vt 0.0000 1.0000
vt 0.0000 0.0000
vt 1.0000 0.0000
vt 1.0000 1.0000
vt 0.0000 1.0000
vt 0.0000 0.0000
vt 1.0000 0.0000
vt 1.0000 1.0000
vt 0.0000 1.0000
vt 0.0000 0.0000
vt 1.0000 0.0000
vt 1.0000 1.0000
vt 0.0000 1.0000
vt 0.0000 0.0000
vt 1.0000 0.0000
vt 1.0000 1.0000
vt 0.0000 1.0000
vt 0.0000 0.0000
vt 1.0000 0.0000
vt 1.0000 1.0000
vt 0.0000 1.0000
vt 0.0000 0.0000
vt 1.0000 1.0000
vt 0.0000 1.0000
vt 0.0000 0.0000
vt 1.0000 1.0000
vt 0.0000 1.0000
vt 1.0000 0.0000
vt 1.0000 1.0000
vt 0.0000 1.0000
vt 0.0000 0.0000
vt 1.0000 0.0000
vt 1.0000 1.0000
vt 0.0000 1.0000
vt 0.0000 0.0000
vt 1.0000 0.0000
vt 1.0000 1.0000
vt 0.0000 1.0000
vt 0.0000 0.0000
vt 1.0000 0.0000
vt 1.0000 1.0000
vt 0.0000 1.0000
vt 0.0000 0.0000
vt 1.0000 0.0000
vt 1.0000 1.0000
vt 0.0000 1.0000
vt 0.0000 0.0000
vt 1.0000 0.0000
vt 1.0000 1.0000
vt 0.0000 1.0000
vt 1.0000 0.0000
vt 1.0000 1.0000
vt 0.0000 1.0000
vt 0.0000 0.0000
vt 1.0000 0.0000
vt 1.0000 1.0000
vt 0.0000 1.0000
vt 1.0000 0.0000
vt 1.0000 1.0000
vt 0.0000 1.0000
vt 0.0000 0.0000
vt 1.0000 0.0000
vt 1.0000 1.0000
vt 0.0000 1.0000
vt 0.0000 0.0000
vt 1.0000 0.0000
vt 1.0000 1.0000
vt 0.0000 0.0000
vt 1.0000 1.0000
vt 0.0000 1.0000
vt 1.0000 0.0000
vt 1.0000 1.0000
vt 0.0000 1.0000
vt 1.0000 0.0000
vt 1.0000 1.0000
vt 0.0000 1.0000
vt 1.0000 0.0000
vt 0.0000 1.0000
vt 0.0000 0.0000
vt 0.0000 1.0000
vt 0.0000 0.0000
vt 1.0000 0.0000
vt 1.0000 1.0000
vt 0.0000 0.0000
vt 1.0000 0.0000
vt 1.0000 1.0000
vt 1.0000 0.8667
vt 0.0000 1.0000
vt 0.0000 0.8667
vt 1.0000 0.0000
vt 1.0000 0.1333
vt 0.0000 0.1333
vt 0.0000 0.0000
vt 0.0000 0.0000
vt 1.0000 0.0000
vt 1.0000 1.0000
vt 0.0000 1.0000
vt 0.0000 0.0000
vt 1.0000 1.0000
vt 0.0000 1.0000
vt 0.0000 0.0000
vt 1.0000 0.0000
vt 1.0000 1.0000
vt 0.0000 1.0000
vt 0.0000 0.0000
vt 1.0000 1.0000
vt 0.0000 1.0000
vt 0.0000 0.0000
vt 1.0000 1.0000
vn 0.0000 -1.0000 0.0000
vn 0.0000 0.0000 -1.0000
vn 1.0000 0.0000 0.0000
vn -0.0000 0.0000 1.0000
vn -1.0000 -0.0000 -0.0000
vn 0.0000 1.0000 0.0000
s off
f 31/1/1 12/2/1 3/3/1 19/4/1
f 28/5/2 23/6/2 40/7/2 39/8/2
f 18/9/3 22/10/3 6/11/3 2/12/3
f 12/13/4 16/14/4 7/15/4 3/16/4
f 20/17/5 24/18/5 8/19/5 4/20/5
f 14/21/2 10/22/2 4/23/2 8/24/2
f 5/25/2 1/26/2 9/27/2 13/28/2
f 13/29/2 9/30/2 10/31/2 14/32/2
f 2/33/4 6/34/4 15/35/4 11/36/4
f 11/37/4 15/38/4 16/39/4 12/40/4
f 16/41/4 15/38/4 37/42/4 35/43/4
f 6/44/3 22/10/3 33/45/3 34/46/3
f 18/9/1 2/47/1 11/48/1 29/49/1
f 29/50/1 11/51/1 12/52/1 31/53/1
f 9/54/1 30/55/1 32/56/1 10/57/1
f 30/58/1 29/59/1 31/60/1 32/61/1
f 1/62/1 17/63/1 30/64/1 9/65/1
f 17/66/1 18/67/1 29/68/1 30/69/1
f 13/29/6 14/70/6 27/71/6 25/72/6
f 25/73/6 27/74/6 28/75/6 26/76/6
f 5/25/6 13/77/6 25/78/6 21/79/6
f 21/80/6 25/81/6 26/82/6 22/83/6
f 3/84/5 7/85/5 23/86/5 19/4/5
f 19/87/5 23/6/5 24/88/5 20/89/5
f 1/62/3 5/90/3 21/91/3 17/92/3
f 17/66/3 21/93/3 22/94/3 18/95/3
f 14/21/6 8/96/6 24/88/6 27/97/6
f 27/98/6 24/18/6 23/86/6 28/99/6
f 10/100/1 32/101/1 20/102/1 4/20/1
f 32/103/1 31/104/1 19/105/1 20/89/1
f 39/106/6 40/7/6 36/107/6 35/108/6
f 33/109/6 38/110/6 37/111/6 34/112/6
f 38/110/6 39/106/6 35/108/6 37/111/6
f 22/113/2 26/114/2 38/115/2 33/116/2
f 15/117/4 6/34/4 34/118/4 37/119/4
f 26/120/2 28/121/2 39/122/2 38/123/2
f 23/124/5 7/85/5 36/125/5 40/126/5
f 7/127/4 16/14/4 35/128/4 36/107/4
