# Blender v2.78 (sub 0) OBJ File: 'RoomMasterSplit.blend'
# www.blender.org
mtllib RoomWall.mtl
o WallWindowsExterior_Cube.011
v 1.000531 0.972139 -0.915951
v 1.000736 3.489873 -0.919720
v -0.999469 0.972139 -0.915951
v -0.999264 3.489873 -0.919720
vt 0.0000 0.5573
vt 0.0000 0.0000
vt 0.4510 0.0000
vt 0.4510 0.5573
vn 0.0000 -0.0015 -1.0000
usemtl ExteriorGlass
s off
f 2/1/1 1/2/1 3/3/1 4/4/1
o WallFlooring_Cube.010
v 1.000608 0.629350 -0.597376
v 1.000608 0.629350 -0.064043
v 1.000608 0.629350 0.469291
v 1.000607 0.629350 1.002624
v 1.000608 0.629350 -0.419598
v 1.000608 0.629350 -0.241820
v 1.000607 0.629350 0.629291
v -0.999392 0.629350 -0.597376
v -0.999392 0.629350 -0.064043
v -0.999392 0.629350 0.469291
v -0.999393 0.629350 1.002624
v -0.999392 0.629350 -0.419598
v -0.999392 0.629350 -0.241820
v -0.999392 0.629350 0.629291
vt 0.6809 0.4991
vt 0.6471 0.4991
vt 0.6471 0.0000
vt 0.6809 0.0000
vt 0.5346 0.4991
vt 0.4971 0.4991
vt 0.4971 0.0000
vt 0.5346 0.0000
vt 0.4596 0.4991
vt 0.4220 0.4991
vt 0.4220 0.0000
vt 0.4596 0.0000
vt 0.7597 0.4991
vt 0.7597 0.0000
vn 0.0000 1.0000 0.0000
usemtl Flooring
s off
f 11/5/2 7/6/2 14/7/2 18/8/2
f 6/9/2 10/10/2 17/11/2 13/12/2
f 7/6/2 6/9/2 13/12/2 14/7/2
f 9/13/2 5/14/2 12/15/2 16/16/2
f 8/17/2 11/5/2 18/8/2 15/18/2
f 10/10/2 9/13/2 16/16/2 17/11/2
o WallExterior_Cube.009
v 1.000608 0.229350 -0.997377
v 1.000608 4.229350 -1.018061
v 1.000608 0.229350 1.002623
v 1.000608 0.229350 0.335957
v 1.000608 0.229350 -0.330710
v 1.000608 0.229350 -0.552932
v 1.000608 0.229350 -0.775154
v 1.000608 0.829350 -1.004271
v 1.000608 3.629350 -1.011166
v 1.000608 0.229350 0.535957
v 1.000531 0.972139 -0.915951
v 1.000736 3.489873 -0.919720
v -0.999392 0.229350 -0.997377
v -0.999392 4.229350 -1.018061
v -0.999392 0.229350 1.002623
v -0.999392 0.229350 0.335957
v -0.999392 0.229350 -0.330710
v -0.999392 0.229350 -0.552932
v -0.999392 0.229350 -0.775154
v -0.999392 0.829350 -1.004271
v -0.999392 3.629350 -1.011166
v -0.999392 0.229350 0.535957
v -0.999469 0.972139 -0.915951
v -0.999264 3.489873 -0.919720
vt 0.6034 0.4992
vt 0.7300 0.4992
vt 0.7300 0.9983
vt 0.6034 0.9983
vt 0.7597 0.4992
vt 0.7597 0.9983
vt 0.0000 0.3882
vt 0.0000 0.3328
vt 0.4220 0.3328
vt 0.4220 0.3882
vt 0.8863 0.9983
vt 0.7597 0.9983
vt 0.7597 0.4992
vt 0.8863 0.4992
vt 0.0000 0.4991
vt 0.0000 0.4437
vt 0.4220 0.4437
vt 0.4220 0.4991
vt 0.0000 0.1165
vt 0.0000 0.0000
vt 0.4220 0.0000
vt 0.4220 0.1165
vt 0.9162 0.9983
vt 0.9162 0.4992
vt 0.0000 0.1664
vt 0.4220 0.1664
vn 0.0000 -0.0115 -0.9999
vn 0.0000 -0.5483 -0.8363
vn 0.0000 -1.0000 -0.0000
vn 0.0000 0.5260 -0.8505
usemtl WallExterior
s off
f 20/19/3 27/20/3 39/21/3 32/22/3
f 27/20/4 30/23/4 42/24/4 39/21/4
f 24/25/5 23/26/5 35/27/5 36/28/5
f 26/29/3 19/30/3 31/31/3 38/32/3
f 19/33/5 25/34/5 37/35/5 31/36/5
f 28/37/5 21/38/5 33/39/5 40/40/5
f 25/34/5 24/25/5 36/28/5 37/35/5
f 29/41/6 26/29/6 38/32/6 41/42/6
f 22/43/5 28/37/5 40/40/5 34/44/5
f 23/26/5 22/43/5 34/44/5 35/27/5
o WallWindows_Cube.005
v 1.000531 0.972139 -0.915951
v 1.000736 3.489873 -0.919720
v 1.000736 3.489873 -0.703561
v 1.000572 0.972337 -0.698535
v -0.999469 0.972139 -0.915951
v -0.999264 3.489873 -0.919720
v -0.999264 3.489873 -0.703561
v -0.999428 0.972337 -0.698535
vt 0.4510 0.5573
vt 0.4510 0.0000
vt 0.9020 0.0000
vt 0.9020 0.5573
vt 0.5000 1.0000
vt 0.5000 0.5573
vt 0.5487 0.5573
vt 0.5487 1.0000
vt 1.0000 0.0000
vt 1.0000 0.5573
vt 0.9513 0.5573
vt 0.9510 0.0000
vt 0.4510 0.5573
vt 0.5000 0.5573
vt 0.5000 1.0000
vt 0.4510 1.0000
vt 0.9510 0.5573
vt 0.9022 0.0001
vt 0.9510 0.0000
vn 0.0000 0.0020 1.0000
vn 0.0000 1.0000 0.0000
vn 1.0000 -0.0001 -0.0001
vn 0.0000 -1.0000 0.0009
vn -1.0000 0.0001 0.0001
usemtl Glass
s off
f 46/45/7 45/46/7 49/47/7 50/48/7
f 49/49/8 45/50/8 44/51/8 48/52/8
f 43/53/9 44/54/9 45/55/9 46/56/9
f 50/57/10 47/58/10 43/59/10 46/60/10
f 47/61/11 50/48/11 49/62/11 48/63/11
o Wall_Cube.001
v 1.000608 0.229350 -0.997377
v 1.000608 4.229350 -1.018061
v 1.000608 4.229350 -0.624956
v 1.000608 0.629350 -0.597376
v 1.000608 0.629350 -0.064043
v 1.000608 0.629350 0.469291
v 1.000607 0.629350 1.002624
v 1.000608 0.229350 1.002623
v 1.000608 0.229350 0.335957
v 1.000608 0.229350 -0.330710
v 1.000608 0.229350 -0.552932
v 1.000608 0.229350 -0.775154
v 1.000608 0.629350 -0.419598
v 1.000608 0.629350 -0.241820
v 1.000608 0.829350 -1.004271
v 1.000608 3.629350 -1.011166
v 1.000607 0.629350 0.629291
v 1.000608 0.229350 0.535957
v 1.000608 3.629350 -0.615762
v 1.000617 0.830871 -0.606569
v 1.000531 0.972139 -0.915951
v 1.000736 3.489873 -0.919720
v 1.000736 3.489873 -0.703561
v 1.000572 0.972337 -0.698535
v -0.999392 0.229350 -0.997377
v -0.999392 4.229350 -1.018061
v -0.999392 4.229350 -0.624956
v -0.999392 0.629350 -0.597376
v -0.999392 0.629350 -0.064043
v -0.999392 0.629350 0.469291
v -0.999393 0.629350 1.002624
v -0.999392 0.229350 1.002623
v -0.999392 0.229350 0.335957
v -0.999392 0.229350 -0.330710
v -0.999392 0.229350 -0.552932
v -0.999392 0.229350 -0.775154
v -0.999392 0.629350 -0.419598
v -0.999392 0.629350 -0.241820
v -0.999392 0.829350 -1.004271
v -0.999392 3.629350 -1.011166
v -0.999392 0.629350 0.629291
v -0.999392 0.229350 0.535957
v -0.999392 3.629350 -0.615762
v -0.999383 0.830871 -0.606569
v -0.999469 0.972139 -0.915951
v -0.999264 3.489873 -0.919720
v -0.999264 3.489873 -0.703561
v -0.999428 0.972337 -0.698535
vt 0.8851 0.4991
vt 0.7597 0.4991
vt 0.7597 0.0000
vt 0.8851 0.0000
vt 0.4785 0.9983
vt 0.4512 0.9983
vt 0.4512 0.4992
vt 0.4785 0.4992
vt 0.9166 0.4992
vt 0.9166 0.0000
vt 0.5204 0.4992
vt 0.6034 0.4992
vt 0.6034 0.9983
vt 0.5204 0.9983
vt 0.5204 0.9983
vt 0.5204 0.4992
vt 0.9171 0.3698
vt 0.9166 0.2200
vt 1.0000 0.2211
vt 1.0000 0.3709
vt 0.9354 0.1854
vt 0.9810 0.1861
vt 0.9618 0.9983
vt 0.9162 0.9983
vt 0.9162 0.4992
vt 0.9618 0.4992
vt 1.0000 0.1498
vt 0.9810 0.1848
vt 0.9354 0.1854
vt 0.9166 0.1509
vt 0.9171 0.0011
vt 1.0000 0.0000
vt 0.4053 0.9983
vt 0.4053 0.4992
vt 0.4512 0.4992
vt 0.4512 0.9983
vt 0.0000 0.5754
vt 0.0000 0.5212
vt 0.0302 0.4991
vt 0.0299 0.5984
vt 0.1568 0.5009
vt 0.0724 0.6007
vt 0.1568 0.5563
vt 0.0724 0.6451
vt 0.1568 0.6118
vt 0.0724 0.6894
vt 0.1568 0.6672
vt 0.0724 0.7338
vt 0.1568 0.8336
vt 0.0724 0.8669
vt 0.1568 0.8835
vt 0.0724 0.9068
vt 0.1568 1.0000
vt 0.0724 1.0000
vt 0.3973 0.9983
vt 0.3136 0.9983
vt 0.3136 0.4991
vt 0.3973 0.4991
vt 0.2292 0.5923
vt 0.2292 0.4991
vt 0.3136 0.4991
vt 0.3136 0.6156
vt 0.3136 0.6655
vt 0.2292 0.6322
vt 0.2292 0.7653
vt 0.3136 0.8319
vt 0.2292 0.8097
vt 0.3136 0.8874
vt 0.3136 0.9428
vt 0.2292 0.8541
vt 0.3136 0.9983
vt 0.2292 0.8985
vt 0.1866 0.9007
vt 0.1870 1.0000
vt 0.1568 0.9237
vt 0.1568 0.9780
vn 0.0000 0.0153 0.9999
vn 0.0000 0.5450 0.8384
vn 0.0000 -0.5327 0.8463
vn 0.0000 1.0000 -0.0000
vn 0.0000 0.0456 0.9990
vn 1.0000 -0.0000 0.0000
vn 1.0000 0.0009 0.0000
vn 0.0000 -1.0000 -0.0000
vn -1.0000 -0.0009 -0.0000
vn -1.0000 0.0000 -0.0000
vn 0.0000 1.0000 -0.0009
vn -1.0000 -0.0004 0.0001
vn 0.0000 -0.0000 1.0000
vn 1.0000 0.0004 -0.0001
usemtl WallInterior
s off
f 69/64/12 53/65/12 77/66/12 93/67/12
f 70/68/13 74/69/13 98/70/13 94/71/13
f 73/72/14 69/64/14 93/67/14 97/73/14
f 53/74/15 52/75/15 76/76/15 77/77/15
f 54/78/16 70/68/16 94/71/16 78/79/16
f 53/80/17 69/81/17 66/82/17 52/83/17
f 66/82/18 69/81/18 73/84/18 72/85/18
f 97/86/19 96/87/19 72/88/19 73/89/19
f 90/90/20 96/91/20 97/92/20 93/93/20
f 77/94/21 76/95/21 90/90/21 93/93/21
f 98/96/22 74/97/22 71/98/22 95/99/22
f 98/100/23 95/101/23 89/102/23 94/103/23
f 94/103/21 89/102/21 75/104/21 78/105/21
f 86/106/21 87/107/21 78/105/21 75/104/21
f 85/108/21 88/109/21 87/107/21 86/106/21
f 88/109/21 85/108/21 84/110/21 79/111/21
f 79/111/21 84/110/21 83/112/21 80/113/21
f 92/114/21 91/115/21 80/113/21 83/112/21
f 91/115/21 92/114/21 82/116/21 81/117/21
f 58/118/24 57/119/24 81/120/24 82/121/24
f 67/122/17 57/123/17 58/124/17 68/125/17
f 68/125/17 59/126/17 56/127/17 67/122/17
f 55/128/17 56/127/17 59/126/17 60/129/17
f 64/130/17 55/128/17 60/129/17 61/131/17
f 61/131/17 62/132/17 63/133/17 64/130/17
f 62/132/17 51/134/17 54/135/17 63/133/17
f 70/136/17 54/135/17 51/134/17 65/137/17
f 74/138/25 70/136/25 65/137/25 71/139/25
