# Blender v2.78 (sub 0) OBJ File: 'RoomMaster.blend'
# www.blender.org
mtllib RoomFloor.mtl
o Floor_Cube.003
v 1.000608 0.229350 -0.997377
v 1.000608 0.629350 -0.997376
v 1.000608 0.629350 -0.064043
v 1.000608 0.629350 0.469291
v 1.000607 0.629350 1.002624
v 1.000608 0.229350 1.002623
v 1.000608 0.229350 0.335957
v 1.000608 0.229350 -0.330710
v 1.000608 0.229350 -0.552932
v 1.000608 0.229350 -0.775154
v 1.000608 0.629350 -0.419598
v 1.000608 0.629350 -0.241820
v 1.000607 0.629350 0.629291
v 1.000608 0.229350 0.535957
v -0.999392 0.229350 -0.997377
v -0.999392 0.629350 -0.997376
v -0.999392 0.629350 -0.064043
v -0.999392 0.629350 0.469291
v -0.999393 0.629350 1.002624
v -0.999392 0.229350 1.002623
v -0.999392 0.229350 0.335957
v -0.999392 0.229350 -0.330710
v -0.999392 0.229350 -0.552932
v -0.999392 0.229350 -0.775154
v -0.999392 0.629350 -0.419598
v -0.999392 0.629350 -0.241820
v -0.999392 0.629350 0.629291
v -0.999392 0.229350 0.535957
vt 0.5556 0.0933
vt 0.5556 0.1333
vt 0.0000 0.1333
vt 0.0000 0.0933
vt 0.0000 0.8889
vt 0.0000 0.8333
vt 0.5556 0.8333
vt 0.5556 0.8889
vt 0.0000 1.0000
vt 0.0000 0.9444
vt 0.5556 0.9444
vt 0.5556 1.0000
vt 0.0000 0.6167
vt 0.0000 0.5000
vt 0.5556 0.5000
vt 0.5556 0.6167
vt 0.5556 0.2667
vt 0.5556 0.3111
vt 0.0000 0.3111
vt 0.0000 0.2667
vt 0.5556 0.3556
vt 0.5556 0.5000
vt 0.0000 0.5000
vt 0.0000 0.3556
vt 0.5556 0.0000
vt 0.0000 0.0000
vt 0.0000 0.6667
vt 0.5556 0.6667
vt 0.8889 0.4444
vt 1.0000 0.3556
vt 1.0000 0.5000
vt 0.8889 0.5000
vt 0.8889 0.3889
vt 1.0000 0.3111
vt 0.8889 0.3333
vt 1.0000 0.2667
vt 0.8889 0.1667
vt 1.0000 0.1333
vt 0.8889 0.1167
vt 1.0000 0.0933
vt 0.8889 0.0000
vt 1.0000 0.0000
vt 0.7778 0.5000
vt 0.6667 0.5000
vt 0.6667 0.0000
vt 0.7778 0.0000
vt 0.7778 0.0933
vt 0.7778 0.0000
vt 0.8889 0.0000
vt 0.8889 0.1167
vt 0.8889 0.1667
vt 0.7778 0.1333
vt 0.7778 0.2667
vt 0.8889 0.3333
vt 0.7778 0.3111
vt 0.8889 0.3889
vt 0.8889 0.4444
vt 0.7778 0.3556
vt 0.8889 0.5000
vt 0.7778 0.5000
vt 0.6667 0.5000
vt 0.5556 0.5000
vt 0.5556 0.0000
vt 0.6667 0.0000
vn 0.0000 1.0000 0.0000
vn 0.0000 -1.0000 -0.0000
vn -1.0000 0.0000 -0.0000
vn 0.0000 -0.0000 1.0000
vn 1.0000 0.0000 0.0000
vn 0.0000 0.0000 -1.0000
usemtl Wall
s off
f 13/1/1 4/2/1 18/3/1 27/4/1
f 9/5/2 8/6/2 22/7/2 23/8/2
f 1/9/2 10/10/2 24/11/2 15/12/2
f 14/13/2 6/14/2 20/15/2 28/16/2
f 10/10/2 9/5/2 23/8/2 24/11/2
f 3/17/1 12/18/1 26/19/1 17/20/1
f 4/2/1 3/17/1 17/20/1 18/3/1
f 11/21/1 2/22/1 16/23/1 25/24/1
f 5/25/1 13/1/1 27/4/1 19/26/1
f 12/18/1 11/21/1 25/24/1 26/19/1
f 7/27/2 14/13/2 28/16/2 21/28/2
f 8/6/2 7/27/2 21/28/2 22/7/2
f 24/29/3 25/30/3 16/31/3 15/32/3
f 23/33/3 26/34/3 25/30/3 24/29/3
f 26/34/3 23/33/3 22/35/3 17/36/3
f 17/36/3 22/35/3 21/37/3 18/38/3
f 28/39/3 27/40/3 18/38/3 21/37/3
f 27/40/3 28/39/3 20/41/3 19/42/3
f 6/43/4 5/44/4 19/45/4 20/46/4
f 13/47/5 5/48/5 6/49/5 14/50/5
f 14/50/5 7/51/5 4/52/5 13/47/5
f 3/53/5 4/52/5 7/51/5 8/54/5
f 12/55/5 3/53/5 8/54/5 9/56/5
f 9/56/5 10/57/5 11/58/5 12/55/5
f 10/57/5 1/59/5 2/60/5 11/58/5
f 15/61/6 16/62/6 2/63/6 1/64/6
